HIERARCHY
ROOT Hips
{
  OFFSET -35.4901 99.2528 17.4586
  CHANNELS 6 Xposition Yposition Zposition Zrotation Xrotation Yrotation
  JOINT LeftUpLeg
  {
    OFFSET 8.64259 1.95398 -2.38835
    CHANNELS 3 Zrotation Xrotation Yrotation
    JOINT LeftLeg
    {
      OFFSET 43.7702 0 0
      CHANNELS 3 Zrotation Xrotation Yrotation
      JOINT LeftFoot
      {
        OFFSET 40.6238 0 0
        CHANNELS 3 Zrotation Xrotation Yrotation
        JOINT LeftToeBase
        {
          OFFSET 12.7242 0 0
          CHANNELS 3 Zrotation Xrotation Yrotation
          End Site
          {
            OFFSET 0 0 0
          }
        }
      }
    }
  }
  JOINT RightUpLeg
  {
    OFFSET -8.2249 1.95398 -2.59336
    CHANNELS 3 Zrotation Xrotation Yrotation
    JOINT RightLeg
    {
      OFFSET 43.5653 0 0
      CHANNELS 3 Zrotation Xrotation Yrotation
      JOINT RightFoot
      {
        OFFSET 40.6238 0 0
        CHANNELS 3 Zrotation Xrotation Yrotation
        JOINT RightToeBase
        {
          OFFSET 12.7242 0 0
          CHANNELS 3 Zrotation Xrotation Yrotation
          End Site
          {
            OFFSET 0 0 0
          }
        }
      }
    }
  }
  JOINT Spine
  {
    OFFSET 0.165834 0.87714 6.61349
    CHANNELS 3 Zrotation Xrotation Yrotation
    JOINT Spine1
    {
      OFFSET 7.38963 1.71661e-005 0
      CHANNELS 3 Zrotation Xrotation Yrotation
      JOINT Spine2
      {
        OFFSET 11.9445 1.14441e-005 0
        CHANNELS 3 Zrotation Xrotation Yrotation
        JOINT Spine3
        {
          OFFSET 14.7254 4.19617e-005 0
          CHANNELS 3 Zrotation Xrotation Yrotation
          JOINT Spine4
          {
            OFFSET 10.9679 0 0
            CHANNELS 3 Zrotation Xrotation Yrotation
            JOINT RightShoulder
            {
              OFFSET 2.46616 -1.6653 3.69651
              CHANNELS 3 Zrotation Xrotation Yrotation
              JOINT RightArm
              {
                OFFSET 13.0012 0 0
                CHANNELS 3 Zrotation Xrotation Yrotation
                JOINT RightForeArm
                {
                  OFFSET 28.7848 1.52588e-005 0
                  CHANNELS 3 Zrotation Xrotation Yrotation
                  JOINT RightHand
                  {
                    OFFSET 26.5688 1.52588e-005 0
                    CHANNELS 3 Zrotation Xrotation Yrotation
                    End Site
                    {
                      OFFSET 0 0 0
                    }
                  }
                }
              }
            }
            JOINT LeftShoulder
            {
              OFFSET 2.38034 -1.29275 -3.7523
              CHANNELS 3 Zrotation Xrotation Yrotation
              JOINT LeftArm
              {
                OFFSET 16.3182 6.10351e-005 0
                CHANNELS 3 Zrotation Xrotation Yrotation
                JOINT LeftForeArm
                {
                  OFFSET 27.0901 0 0
                  CHANNELS 3 Zrotation Xrotation Yrotation
                  JOINT LeftHand
                  {
                    OFFSET 24.5451 1.52588e-005 0
                    CHANNELS 3 Zrotation Xrotation Yrotation
                    End Site
                    {
                      OFFSET 0 0 0
                    }
                  }
                }
              }
            }
            JOINT Neck
            {
              OFFSET 5.0226 -0.0266342 0
              CHANNELS 3 Zrotation Xrotation Yrotation
              JOINT Head
              {
                OFFSET 6.69364 2.86102e-005 0
                CHANNELS 3 Zrotation Xrotation Yrotation
                End Site
                {
                  OFFSET 0 0 0
                }
              }
            }
          }
        }
      }
    }
  }
}
MOTION
Frames:	13
Frame Time:	0.0416667
-10.4411 94.9089 152.69 160.296 -77.3753 161.342 -168.614 -9.59072 97.8551 -38.225 21.555 -0.198574 80.4053 9.6062 0.308712 30.1937 1.68059 -2.93676 173.174 11.9777 92.8582 -20.0688 -10.3957 0.566899 58.8848 0.548069 0.860349 17.29 -2.44281 6.36683 -0.664079 8.12728 -90.6063 10.6097 -1.60145 -1.06205 -1.06063 -1.64664 -0.99053 -23.5973 -1.20826 -1.49424 -3.58462 -1.20826 -1.49424 90.4099 -33.2143 -104.807 39.1381 -0.522458 6.5005 0.475224 -22.5426 -17.8788 -21.9552 0.256368 -9.54231 -85.2192 -47.4948 85.5643 -20.6915 12.9142 -26.9816 3.16246 9.36674 -7.99806 -0.950619 -0.129763 -7.53064 -17.0772 0.688551 -4.49522 -10.7789 0.445739 2.81017 
-9.13543 94.5073 143.226 177.022 -78.3737 174.293 -172.607 -6.68892 90.0978 -36.2116 12.2884 -3.43189 85.4539 10.928 -2.00327 21.4103 -2.84476 4.80386 172.326 13.3118 89.4997 -10.6216 -9.81623 0.0145583 54.2991 1.41745 0.75411 24.7875 -0.958083 2.87113 -0.303623 8.35286 -90.1146 10.1677 -0.657195 -0.171856 -1.50308 -0.664124 -0.142772 -24.0392 -0.575167 -0.36143 -4.02658 -0.575164 -0.361438 89.9193 -34.2683 -105.373 36.8903 -2.61085 2.89166 -0.556559 -25.1218 -20.2609 -23.0006 0.284293 -9.91034 -85.4077 -47.8188 85.3187 -18.4124 12.6359 -26.7681 2.78653 10.9833 -7.10178 -0.425992 -0.129283 -6.65145 -15.318 0.48433 -5.0379 -10.436 0.356505 2.2621 
-7.66709 95.2386 135.451 -168.322 -76.8429 -171.284 -174.934 -3.59029 87.047 -35.0855 8.09664 -3.68379 84.0459 10.1902 -0.673468 15.8685 -0.0249445 0.998189 171.674 14.9654 88.0943 -15.3772 -4.51936 0.0136158 57.8551 -0.738476 0.633698 22.0003 -1.89136 5.17749 0.0827614 8.69584 -90.0805 9.48235 0.128755 -0.17047 -2.1886 0.121135 -0.175973 -24.7238 0.174031 -0.123891 -4.71116 0.174041 -0.12389 89.2613 -33.2753 -106.961 35.6062 -3.95569 -0.159461 1.1009 -24.7865 -17.9314 -22.4524 0.389378 -10.621 -85.1945 -48.204 85.7015 -18.5529 12.6589 -21.9142 2.96698 10.3358 -8.39046 -0.746994 -0.115303 -6.18888 -16.427 0.504164 -3.03722 -9.52415 0.389512 1.76775 
-6.50468 96.6413 129.298 -156.853 -75.7138 -158.524 -177.152 -1.78255 85.5121 -30.6538 2.93257 -2.23204 79.5878 7.59089 -1.65796 13.9545 -2.31295 4.11495 174.162 18.0442 86.895 -38.0638 -10.1776 -2.13869 62.6832 -2.1719 -0.692844 21.3201 -1.9308 5.26316 0.496259 8.7401 -90.2947 9.39548 0.857119 -0.646985 -2.27537 0.827824 -0.684092 -24.8122 1.01193 -0.359459 -4.79956 1.01194 -0.359464 88.9349 -30.9192 -108.494 36.2206 -4.98317 -0.753439 1.46706 -25.1511 -16.5844 -23.2028 0.135108 -9.01409 -84.1792 -49.67 87.4398 -19.9401 14.6341 -13.4511 2.12374 7.01077 -10.8372 0.362956 -0.14717 -7.00475 -19.3765 0.595176 0.758272 -8.63265 0.620474 0.190283 
-6.02001 96.865 124.18 -146.701 -74.9315 -148.694 -178.248 1.007 84.4535 -28.1924 0.00525597 -1.99066 76.8646 5.95383 -1.3974 12.415 -2.37872 4.19857 176.21 15.0003 84.0333 -57.2559 -12.1973 -4.02678 65.4495 -3.5345 -1.14648 21.4318 -1.97185 5.35252 0.88526 8.62439 -90.2384 9.62963 1.65732 -0.601133 -2.04044 1.62925 -0.673516 -24.584 1.76134 -0.0751037 -4.5714 1.76133 -0.0751073 88.1503 -30.2012 -110.315 36.263 -5.194 0.931286 -0.124202 -24.9662 -18.5148 -22.7712 0.231994 -9.64848 -82.7703 -50.206 89.6282 -23.4143 15.1397 -3.37744 2.73477 6.48081 -14.8359 -0.240084 -0.132772 -6.62426 -21.2561 0.615287 2.68791 -7.1988 0.78666 -0.804019 
-6.03762 96.4328 119.528 -141.209 -74.4645 -144.797 -177.958 3.94622 84.036 -26.9673 -0.977721 -3.41364 74.2369 5.02674 -1.97988 10.858 -1.66351 3.34525 175.966 5.58027 80.1689 -63.8083 -16.3681 -5.75279 66.0852 -3.84501 -1.44023 22.8371 -2.48601 6.54478 1.28807 8.54278 -89.9338 9.79091 2.59759 -0.0753685 -1.87745 2.59177 -0.189708 -24.4324 2.50007 0.709297 -4.41973 2.50008 0.709299 88.4177 -30.2415 -109.777 36.9574 -4.8945 0.959608 -0.0299226 -26.8312 -18.6384 -23.8585 0.251362 -9.82577 -82.3216 -50.5445 90.3338 -25.7192 12.6338 1.95947 2.7781 7.07812 -11.5685 -1.58343 -0.109659 -7.14796 -21.5807 0.355424 1.83989 -7.31339 0.495686 -0.938504 
-6.71129 96.1662 113.852 -139.221 -74.6725 -143.606 -177.583 7.1215 84.6049 -24.694 -0.437447 -3.94031 70.5735 4.23391 -2.23222 7.54135 -1.91348 3.70883 173.68 -5.70934 79.2313 -56.0063 -24.1888 -7.84925 70.6789 -5.91999 -2.96279 22.6159 -3.79817 9.71459 1.51812 8.52463 -89.7873 9.82439 3.1225 0.172198 -1.8428 3.12704 0.0344538 -24.4052 2.92625 1.10347 -4.39257 2.92626 1.10347 88.9177 -29.2766 -109.199 38.0251 -5.99919 -0.694704 1.60796 -25.9278 -16.3894 -24.0771 0.279097 -9.77323 -81.8965 -52.2746 91.1021 -26.5637 9.86326 5.46681 3.2689 5.84765 -10.9467 -1.33892 -0.100703 -5.28382 -21.9961 0.0244554 1.31 -7.29496 0.157762 -1.39578 
-7.91758 95.5509 106.055 -137.634 -76.3532 -140.749 -177.69 12.4441 86.7659 -21.3053 1.14477 -2.71138 63.798 2.22872 -2.07214 7.98662 -1.62159 3.36026 170.489 -12.3457 81.6879 -38.5236 -20.6432 -6.58876 74.4462 -7.71768 -3.82544 38.2737 -3.35138 9.73508 1.60232 8.48997 -89.8372 9.89386 3.2676 0.0606442 -1.77298 3.2671 -0.0833985 -24.3386 3.09815 1.04084 -4.32594 3.09815 1.04083 88.542 -29.1562 -109.994 37.7917 -6.08025 -1.31594 0.262953 -25.2299 -19.1904 -24.0013 0.211308 -9.30423 -81.82 -52.1369 91.2063 -27.7033 8.54493 5.67567 4.39187 5.6097 -13.3596 -3.12377 -0.0546509 -7.25858 -21.1775 -0.140744 0.862312 -7.01559 -0.0239445 -1.84956 
-9.13886 94.723 96.8109 -148.049 -78.6013 -148.194 -178.16 15.9352 90.0017 -14.7878 5.63499 -1.1603 60.6767 1.66844 -0.745738 12.8455 -2.0699 3.80687 168.654 -13.3569 84.9388 -28.5628 -18.6641 -2.38316 83.3346 -11.2171 -1.74328 34.915 -2.10222 5.83984 1.4106 8.68279 -90.2467 9.5223 2.70135 -0.698435 -2.14607 2.66799 -0.816733 -24.7042 2.78629 0.14635 -4.69156 2.7863 0.146353 88.0371 -28.7555 -111.18 35.7954 -5.19828 -2.15082 -1.26558 -26.2097 -20.9945 -25.5874 0.3249 -9.76805 -80.9087 -55.7034 92.7436 -21.4247 12.3533 -0.702353 3.0103 5.07744 -14.1256 -1.93272 -0.101 -8.09384 -19.6672 -0.396711 2.58109 -6.86411 -0.205363 -2.7638 
-10.3251 95.4852 89.0469 175.736 -80.635 175.915 -178.556 15.4137 89.6481 -8.37098 5.46894 -1.48964 62.9128 3.26752 -0.0848904 16.8315 -3.62498 5.84924 168.815 -10.1001 88.0448 -26.0622 -12.6879 0.62737 84.3432 -11.3531 -2.51343 28.7239 -3.48929 9.41502 0.823931 8.85105 -90.3876 9.17718 1.46977 -0.872925 -2.49327 1.42993 -0.936782 -25.0344 1.66415 -0.390754 -5.02179 1.66415 -0.390757 88.3171 -29.4119 -110.332 34.8806 -4.15672 -2.31876 -0.328983 -26.4595 -18.9578 -25.456 0.326536 -9.82795 -82.3906 -53.5118 90.4718 -20.3382 12.924 -7.88929 3.11265 7.20858 -12.473 -2.48297 -0.0880492 -6.94279 -20.7425 -0.820504 0.716238 -7.16712 -0.726117 -1.79225 
-11.2549 97.1064 82.6506 167.137 -80.6872 165.671 -177.155 18.3148 89.2618 -23.2974 -4.21645 -1.84086 65.0792 3.6939 -2.38935 17.8985 -1.13704 2.4394 169.673 -7.26782 88.7192 -22.7297 -9.91663 0.170208 80.6284 -8.85789 -0.831209 24.7386 -2.88729 7.55144 0.581805 8.88592 -90.2504 9.10507 1.04855 -0.570413 -2.5656 1.02242 -0.61601 -25.1039 1.17149 -0.228873 -5.09131 1.17149 -0.228882 88.7064 -29.3636 -109.582 36.173 -3.96531 0.366477 0.375791 -26.1992 -18.1547 -24.337 0.270835 -9.71934 -83.4537 -51.4534 88.7243 -17.0806 15.85 -11.432 2.2577 5.97304 -14.9617 -2.73326 -0.0781579 -7.96364 -20.6735 -0.72266 -0.544816 -8.04801 -0.717938 -0.792633 
-11.6703 97.6172 77.4878 169.517 -82.4637 166.769 -174.629 18.3958 90.2329 -40.522 4.61467 -0.988966 68.5373 4.97791 -1.03233 20.431 -1.24898 2.51771 170.047 -1.55487 87.7878 -22.5204 -10.1197 -0.194836 77.9702 -6.99015 -0.0547358 24.2161 -2.86822 7.47548 0.332972 8.67001 -90.0643 9.53406 0.634931 -0.175946 -2.13675 0.626575 -0.203731 -24.6731 0.658457 0.0230237 -4.66049 0.658459 0.0230163 89.1654 -30.0014 -108.409 37.528 -4.42189 2.67191 0.990221 -25.6478 -17.616 -23.4086 0.339784 -10.2038 -83.5632 -49.6609 88.3746 -16.093 13.7095 -12.6035 3.24819 4.65887 -16.9231 0.177756 -0.165249 -7.69789 -19.9954 0.262127 0.00924774 -9.19852 0.24308 0.388683 
-11.6056 97.9232 73.1422 177.21 -84.0935 175.003 -172.966 12.9811 92.5832 -50.4176 9.88372 1.01358 70.666 5.70222 -1.13986 19.4255 -1.88396 3.42522 170.342 1.88055 88.8717 -21.5395 -11.4988 0.285276 74.904 -5.83239 0.564025 24.8238 -2.16735 5.82454 0.104608 8.36868 -90.1604 10.1367 0.135342 -0.329256 -1.53425 0.120726 -0.334899 -24.0692 0.228037 -0.273362 -4.05655 0.22805 -0.273351 89.4455 -30.0353 -107.842 38.9715 -3.37913 5.06627 1.81141 -24.1115 -16.9307 -23.3838 0.241466 -9.39928 -83.2023 -49.7195 88.9276 -16.023 10.8085 -13.1484 4.2679 4.04207 -17.4065 0.241429 -0.185063 -8.4806 -21.2765 1.25272 1.87722 -9.81734 1.29272 1.10419 
